<svg width="274" height="55" viewBox="0 0 274 55" fill="none" xmlns="http://www.w3.org/2000/svg">
<path d="M34.3704 0.5C15.7779 0.5 0.5 12.487 0.5 27.5C0.5 42.513 15.7779 54.5 34.3704 54.5H239.63C258.222 54.5 273.5 42.513 273.5 27.5C273.5 12.487 258.222 0.5 239.63 0.5H34.3704Z" stroke="#F1CC70"/>
<path d="M41.456 17.386C39.844 15.904 37.504 15.124 35.424 15.124C31.992 15.124 28.3 16.814 28.3 20.896C28.3 24.224 30.666 25.42 33.006 26.174C35.424 26.954 36.828 27.396 36.828 28.8C36.828 30.282 35.632 30.802 34.28 30.802C32.824 30.802 31.186 29.97 30.302 28.852L27.39 31.816C29.002 33.506 31.654 34.468 34.28 34.468C37.92 34.468 41.326 32.57 41.326 28.332C41.326 24.666 38.102 23.6 35.606 22.794C33.864 22.248 32.772 21.858 32.772 20.636C32.772 19.18 34.202 18.79 35.346 18.79C36.49 18.79 37.868 19.414 38.622 20.376L41.456 17.386ZM47.4573 26.044C47.5613 24.718 48.7573 23.574 50.3953 23.574C52.0853 23.574 52.9433 24.692 52.9433 26.044H47.4573ZM56.8693 27.682C56.8693 23.262 54.1913 20.636 50.3693 20.636C46.4433 20.636 43.3753 23.34 43.3753 27.578C43.3753 31.946 46.5993 34.416 50.4993 34.416C53.1253 34.416 55.1533 33.428 56.3753 31.66L53.4113 29.788C52.8393 30.568 51.9033 31.14 50.5513 31.14C49.0173 31.14 47.5873 30.126 47.4573 28.696H56.8433C56.8693 28.384 56.8693 28.02 56.8693 27.682ZM62.9456 26.044C63.0496 24.718 64.2456 23.574 65.8836 23.574C67.5736 23.574 68.4316 24.692 68.4316 26.044H62.9456ZM72.3576 27.682C72.3576 23.262 69.6796 20.636 65.8576 20.636C61.9316 20.636 58.8636 23.34 58.8636 27.578C58.8636 31.946 62.0876 34.416 65.9876 34.416C68.6136 34.416 70.6416 33.428 71.8636 31.66L68.8996 29.788C68.3276 30.568 67.3916 31.14 66.0396 31.14C64.5056 31.14 63.0756 30.126 62.9456 28.696H72.3316C72.3576 28.384 72.3576 28.02 72.3576 27.682ZM95.2299 27.474C95.2299 23.236 91.9539 20.636 88.0279 20.636C84.1279 20.636 80.8519 23.236 80.8519 27.474C80.8519 31.712 84.1279 34.416 88.0279 34.416C91.9539 34.416 95.2299 31.712 95.2299 27.474ZM91.1219 27.474C91.1219 29.138 90.0559 30.828 88.0539 30.828C86.0519 30.828 84.9859 29.138 84.9859 27.474C84.9859 25.81 86.0259 24.172 88.0279 24.172C90.0299 24.172 91.1219 25.81 91.1219 27.474ZM110.566 34V21.052H106.302V28.046C106.302 29.528 105.496 30.828 104.014 30.828C102.454 30.828 102.09 29.528 102.09 28.072V21.052H97.7996V29.06C97.7996 31.66 99.0216 34.364 102.506 34.364C104.326 34.364 105.808 33.35 106.406 32.206H106.458V34H110.566ZM122.48 20.792C122.272 20.714 121.908 20.688 121.57 20.688C119.984 20.688 118.71 21.624 118.06 22.924H118.008V21.052H113.9V34H118.164V27.344C118.164 26.278 118.918 24.406 121.206 24.406C121.544 24.406 121.908 24.432 122.298 24.536L122.48 20.792ZM142.097 22.378C141.083 21.338 139.133 20.636 137.287 20.636C133.257 20.636 130.059 23.314 130.059 27.526C130.059 31.816 133.231 34.416 137.313 34.416C139.211 34.416 141.031 33.792 142.097 32.752L139.731 29.866C139.211 30.49 138.275 30.828 137.417 30.828C135.545 30.828 134.375 29.32 134.375 27.526C134.375 25.732 135.571 24.198 137.365 24.198C138.223 24.198 139.159 24.614 139.627 25.238L142.097 22.378ZM157.513 27.474C157.513 23.236 154.237 20.636 150.311 20.636C146.411 20.636 143.135 23.236 143.135 27.474C143.135 31.712 146.411 34.416 150.311 34.416C154.237 34.416 157.513 31.712 157.513 27.474ZM153.405 27.474C153.405 29.138 152.339 30.828 150.337 30.828C148.335 30.828 147.269 29.138 147.269 27.474C147.269 25.81 148.309 24.172 150.311 24.172C152.313 24.172 153.405 25.81 153.405 27.474ZM164.581 34V14.344H160.265V34H164.581ZM172.325 34V14.344H168.009V34H172.325ZM179.133 26.044C179.237 24.718 180.433 23.574 182.071 23.574C183.761 23.574 184.619 24.692 184.619 26.044H179.133ZM188.545 27.682C188.545 23.262 185.867 20.636 182.045 20.636C178.119 20.636 175.051 23.34 175.051 27.578C175.051 31.946 178.275 34.416 182.175 34.416C184.801 34.416 186.829 33.428 188.051 31.66L185.087 29.788C184.515 30.568 183.579 31.14 182.227 31.14C180.693 31.14 179.263 30.126 179.133 28.696H188.519C188.545 28.384 188.545 28.02 188.545 27.682ZM202.577 22.378C201.563 21.338 199.613 20.636 197.767 20.636C193.737 20.636 190.539 23.314 190.539 27.526C190.539 31.816 193.711 34.416 197.793 34.416C199.691 34.416 201.511 33.792 202.577 32.752L200.211 29.866C199.691 30.49 198.755 30.828 197.897 30.828C196.025 30.828 194.855 29.32 194.855 27.526C194.855 25.732 196.051 24.198 197.845 24.198C198.703 24.198 199.639 24.614 200.107 25.238L202.577 22.378ZM211.936 24.25V21.052H208.894V17.646H204.708V21.052H202.654V24.25H204.734V29.71C204.734 32.466 205.878 34.312 209.336 34.312C210.246 34.312 211.234 34.13 211.806 33.922L211.754 30.802C211.442 30.932 210.922 31.01 210.506 31.01C209.284 31.01 208.894 30.386 208.894 29.19V24.25H211.936ZM218.567 16.918C218.567 15.618 217.475 14.578 216.123 14.578C214.745 14.578 213.679 15.67 213.679 16.918C213.679 18.192 214.745 19.258 216.123 19.258C217.475 19.258 218.567 18.244 218.567 16.918ZM218.255 34V21.052H213.991V34H218.255ZM235.361 27.474C235.361 23.236 232.085 20.636 228.159 20.636C224.259 20.636 220.983 23.236 220.983 27.474C220.983 31.712 224.259 34.416 228.159 34.416C232.085 34.416 235.361 31.712 235.361 27.474ZM231.253 27.474C231.253 29.138 230.187 30.828 228.185 30.828C226.183 30.828 225.117 29.138 225.117 27.474C225.117 25.81 226.157 24.172 228.159 24.172C230.161 24.172 231.253 25.81 231.253 27.474ZM250.852 34V25.992C250.852 23.392 249.604 20.688 246.12 20.688C244.326 20.688 242.844 21.702 242.246 22.846H242.194V21.052H238.06V34H242.35V26.98C242.35 25.498 243.13 24.198 244.638 24.198C246.172 24.198 246.562 25.498 246.562 26.928V34H250.852Z" fill="white"/>
</svg>
