<svg width="32" height="32" viewBox="0 0 32 32" fill="none" xmlns="http://www.w3.org/2000/svg">
<path d="M1 1H3.67036C5.32783 1 6.63232 2.395 6.49419 4L5.2204 18.94C5.17067 19.5188 5.24447 20.1014 5.43715 20.6508C5.62983 21.2003 5.93717 21.7046 6.33971 22.1319C6.74225 22.5592 7.2312 22.9001 7.77559 23.133C8.31997 23.3659 8.90793 23.4858 9.50219 23.485H25.8466C28.0566 23.485 29.9903 21.715 30.1591 19.57L30.9879 8.32C31.172 5.83 29.2383 3.805 26.6754 3.805H6.86252M11.7428 10H30.1591M22.8693 31C23.3781 31 23.8661 30.8025 24.2258 30.4508C24.5856 30.0992 24.7877 29.6223 24.7877 29.125C24.7877 28.6277 24.5856 28.1508 24.2258 27.7992C23.8661 27.4475 23.3781 27.25 22.8693 27.25C22.3606 27.25 21.8726 27.4475 21.5129 27.7992C21.1531 28.1508 20.951 28.6277 20.951 29.125C20.951 29.6223 21.1531 30.0992 21.5129 30.4508C21.8726 30.8025 22.3606 31 22.8693 31ZM10.5918 31C11.1006 31 11.5885 30.8025 11.9483 30.4508C12.3081 30.0992 12.5102 29.6223 12.5102 29.125C12.5102 28.6277 12.3081 28.1508 11.9483 27.7992C11.5885 27.4475 11.1006 27.25 10.5918 27.25C10.083 27.25 9.59509 27.4475 9.23533 27.7992C8.87557 28.1508 8.67345 28.6277 8.67345 29.125C8.67345 29.6223 8.87557 30.0992 9.23533 30.4508C9.59509 30.8025 10.083 31 10.5918 31V31Z" stroke="white" stroke-width="1.5" stroke-miterlimit="10" stroke-linecap="round" stroke-linejoin="round"/>
</svg>
