<svg width="20" height="21" viewBox="0 0 20 21" fill="none" xmlns="http://www.w3.org/2000/svg">
<path d="M10.8334 18.8791H7.50008C7.27907 18.8791 7.06711 18.7887 6.91083 18.6277C6.75455 18.4668 6.66675 18.2485 6.66675 18.0209V12.7003H5.00008C4.77907 12.7003 4.56711 12.6099 4.41083 12.449C4.25455 12.2881 4.16675 12.0698 4.16675 11.8422V8.75282C4.16675 8.52523 4.25455 8.30695 4.41083 8.14602C4.56711 7.98508 4.77907 7.89467 5.00008 7.89467H6.66675V6.4358C6.72516 5.12828 7.28393 3.89776 8.22089 3.01329C9.15785 2.12883 10.3968 1.66239 11.6667 1.71594H14.1667C14.3878 1.71594 14.5997 1.80636 14.756 1.96729C14.9123 2.12823 15.0001 2.3465 15.0001 2.5741V5.66346C15.0001 5.89106 14.9123 6.10933 14.756 6.27027C14.5997 6.4312 14.3878 6.52162 14.1667 6.52162H11.6667V7.89467H14.1667C14.2954 7.89366 14.4226 7.92336 14.5382 7.98142C14.6539 8.03949 14.7549 8.12435 14.8334 8.22935C14.911 8.33593 14.9635 8.45965 14.9866 8.59073C15.0098 8.72181 15.003 8.85663 14.9667 8.98453L14.1334 12.0739C14.083 12.2595 13.9734 12.4222 13.8222 12.5359C13.671 12.6495 13.4871 12.7075 13.3001 12.7003H11.6667V18.0209C11.6667 18.2485 11.5789 18.4668 11.4227 18.6277C11.2664 18.7887 11.0544 18.8791 10.8334 18.8791ZM8.33341 17.1628H10.0001V11.8422C10.0001 11.6146 10.0879 11.3963 10.2442 11.2354C10.4004 11.0744 10.6124 10.984 10.8334 10.984H12.7001L13.0667 9.61098H10.8334C10.6124 9.61098 10.4004 9.52057 10.2442 9.35963C10.0879 9.1987 10.0001 8.98042 10.0001 8.75282V6.4358C10.0215 5.99564 10.2065 5.58083 10.5167 5.27729C10.827 4.97375 11.2388 4.80475 11.6667 4.80531H13.3334V3.43226H11.6667C10.8391 3.38033 10.0249 3.66656 9.4009 4.22885C8.77687 4.79114 8.3933 5.58414 8.33341 6.4358V8.75282C8.33341 8.98042 8.24562 9.1987 8.08934 9.35963C7.93306 9.52057 7.72109 9.61098 7.50008 9.61098H5.83341V10.984H7.50008C7.72109 10.984 7.93306 11.0744 8.08934 11.2354C8.24562 11.3963 8.33341 11.6146 8.33341 11.8422V17.1628Z" fill="white"/>
</svg>
