<svg width="381" height="224" viewBox="0 0 381 224" fill="none" xmlns="http://www.w3.org/2000/svg">
<path d="M2 1H1V2V74C1 107.137 27.8629 134 61 134H376H377V133V61C377 27.8629 350.137 1 317 1H2Z" stroke="#D79F67" stroke-width="2"/>
<path d="M24.64 27.57V25.38H16.075V27.57H19.075V36H21.64V27.57H24.64ZM32.8071 36V31.38C32.8071 29.88 32.1021 28.32 30.0771 28.32C29.0421 28.32 28.2621 28.875 27.9321 29.475H27.9021V24.66H25.4421V36H27.9021V31.965C27.9021 31.08 28.3821 30.375 29.2371 30.375C30.1221 30.375 30.3321 31.11 30.3321 31.95V36H32.8071ZM36.65 31.41C36.71 30.645 37.4 29.985 38.345 29.985C39.32 29.985 39.815 30.63 39.815 31.41H36.65ZM42.08 32.355C42.08 29.805 40.535 28.29 38.33 28.29C36.065 28.29 34.295 29.85 34.295 32.295C34.295 34.815 36.155 36.24 38.405 36.24C39.92 36.24 41.09 35.67 41.795 34.65L40.085 33.57C39.755 34.02 39.215 34.35 38.435 34.35C37.55 34.35 36.725 33.765 36.65 32.94H42.065C42.08 32.76 42.08 32.55 42.08 32.355ZM53.1197 32.37V25.38H50.5397V32.385C50.5397 33.315 50.3447 33.96 49.5047 33.96C48.9647 33.96 48.5747 33.585 48.4397 33.03L46.1747 33.795C46.5647 35.25 47.8397 36.285 49.6247 36.285C52.5197 36.285 53.1197 34.05 53.1197 32.37ZM59.4413 33C59.4413 33.93 58.8863 34.53 57.8963 34.53C57.4013 34.53 56.8313 34.335 56.8313 33.765C56.8313 32.88 58.0463 32.745 59.1263 32.745H59.4413V33ZM56.1713 30.885C56.6213 30.465 57.3113 30.12 58.0163 30.12C58.7813 30.12 59.3663 30.465 59.3663 31.2V31.32C57.1913 31.32 54.5663 31.68 54.5663 33.84C54.5663 35.595 56.0963 36.18 57.2813 36.18C58.1663 36.18 59.0213 35.82 59.3963 35.205H59.4413V36H61.6913V32.235C61.6913 29.52 60.7613 28.29 58.2563 28.29C57.0413 28.29 55.7963 28.725 54.9263 29.55L56.1713 30.885ZM70.0974 29.295C69.5124 28.695 68.3874 28.29 67.3224 28.29C64.9974 28.29 63.1524 29.835 63.1524 32.265C63.1524 34.74 64.9824 36.24 67.3374 36.24C68.4324 36.24 69.4824 35.88 70.0974 35.28L68.7324 33.615C68.4324 33.975 67.8924 34.17 67.3974 34.17C66.3174 34.17 65.6424 33.3 65.6424 32.265C65.6424 31.23 66.3324 30.345 67.3674 30.345C67.8624 30.345 68.4024 30.585 68.6724 30.945L70.0974 29.295ZM76.0963 31.905L78.9763 28.53H75.9913L73.6063 31.56H73.5613V24.66H71.0863V36H73.5613V32.415H73.6063L76.0513 36H79.0963L76.0963 31.905ZM81.7086 31.41C81.7686 30.645 82.4586 29.985 83.4036 29.985C84.3786 29.985 84.8736 30.63 84.8736 31.41H81.7086ZM87.1386 32.355C87.1386 29.805 85.5936 28.29 83.3886 28.29C81.1236 28.29 79.3536 29.85 79.3536 32.295C79.3536 34.815 81.2136 36.24 83.4636 36.24C84.9786 36.24 86.1486 35.67 86.8536 34.65L85.1436 33.57C84.8136 34.02 84.2736 34.35 83.4936 34.35C82.6086 34.35 81.7836 33.765 81.7086 32.94H87.1236C87.1386 32.76 87.1386 32.55 87.1386 32.355ZM93.0891 30.375V28.53H91.3341V26.565H88.9191V28.53H87.7341V30.375H88.9341V33.525C88.9341 35.115 89.5941 36.18 91.5891 36.18C92.1141 36.18 92.6841 36.075 93.0141 35.955L92.9841 34.155C92.8041 34.23 92.5041 34.275 92.2641 34.275C91.5591 34.275 91.3341 33.915 91.3341 33.225V30.375H93.0891ZM99.9902 29.34C99.2552 28.65 98.1002 28.29 96.9902 28.29C95.5652 28.29 93.8852 29.01 93.8852 30.795C93.8852 32.205 95.0252 32.73 96.0602 32.97C97.0802 33.21 97.5452 33.36 97.5452 33.825C97.5452 34.305 97.0652 34.47 96.6602 34.47C95.9402 34.47 95.2652 34.11 94.8302 33.63L93.4502 35.085C94.2302 35.835 95.4902 36.24 96.7052 36.24C98.2352 36.24 99.9002 35.58 99.9002 33.69C99.9002 32.235 98.6552 31.665 97.5152 31.41C96.5552 31.2 96.1502 31.08 96.1502 30.66C96.1502 30.225 96.6152 30.06 97.0802 30.06C97.6802 30.06 98.2502 30.36 98.6402 30.735L99.9902 29.34ZM109.885 31.695C107.32 31.695 104.935 31.89 104.935 34.05C104.935 35.61 106.3 36.18 107.365 36.18C108.49 36.18 109.27 35.79 109.915 34.86H109.945C109.945 35.235 109.99 35.655 110.05 36H110.965C110.89 35.61 110.845 34.965 110.845 34.425V31.35C110.845 29.64 109.63 28.8 108.115 28.8C106.915 28.8 105.925 29.235 105.355 29.805L105.925 30.48C106.42 29.985 107.185 29.655 108.01 29.655C109.225 29.655 109.885 30.255 109.885 31.47V31.695ZM109.885 32.49V33.015C109.885 34.26 109.075 35.34 107.635 35.34C106.84 35.34 105.985 35.01 105.985 34.005C105.985 32.67 107.92 32.49 109.585 32.49H109.885ZM113.473 30.525V36H114.493V32.4C114.493 30.525 115.468 29.745 116.548 29.745C116.818 29.745 117.148 29.79 117.268 29.835L117.403 28.875C117.193 28.815 116.983 28.8 116.728 28.8C115.738 28.8 114.868 29.37 114.478 30.18H114.448C114.448 29.88 114.418 29.355 114.388 28.98H113.413C113.458 29.46 113.473 30.15 113.473 30.525ZM119.185 31.95C119.275 30.75 120.28 29.655 121.645 29.655C123.1 29.655 123.91 30.63 123.97 31.95H119.185ZM125.005 32.28C125.005 30.36 123.85 28.8 121.645 28.8C119.65 28.8 118.105 30.375 118.105 32.49C118.105 34.605 119.65 36.18 121.735 36.18C122.89 36.18 123.925 35.745 124.75 34.695L123.985 34.095C123.595 34.725 122.785 35.31 121.735 35.31C120.295 35.31 119.2 34.17 119.17 32.76H124.99C125.005 32.58 125.005 32.415 125.005 32.28ZM131.954 30.18H131.924C131.924 29.88 131.894 29.355 131.864 28.98H130.889C130.934 29.46 130.949 30.15 130.949 30.525V36H131.969V32.4C131.969 30.525 133.034 29.655 134.009 29.655C135.374 29.655 135.704 30.54 135.704 31.905V36H136.724V32.265C136.724 30.96 137.249 29.655 138.719 29.655C140.039 29.655 140.534 30.645 140.534 32.115V36H141.554V31.695C141.554 29.955 140.669 28.8 138.884 28.8C137.759 28.8 136.904 29.325 136.424 30.285C135.959 29.085 135.029 28.8 134.264 28.8C133.259 28.8 132.359 29.37 131.954 30.18ZM148.616 31.695C146.051 31.695 143.666 31.89 143.666 34.05C143.666 35.61 145.031 36.18 146.096 36.18C147.221 36.18 148.001 35.79 148.646 34.86H148.676C148.676 35.235 148.721 35.655 148.781 36H149.696C149.621 35.61 149.576 34.965 149.576 34.425V31.35C149.576 29.64 148.361 28.8 146.846 28.8C145.646 28.8 144.656 29.235 144.086 29.805L144.656 30.48C145.151 29.985 145.916 29.655 146.741 29.655C147.956 29.655 148.616 30.255 148.616 31.47V31.695ZM148.616 32.49V33.015C148.616 34.26 147.806 35.34 146.366 35.34C145.571 35.34 144.716 35.01 144.716 34.005C144.716 32.67 146.651 32.49 148.316 32.49H148.616ZM157.979 34.815H158.009V36H159.029V24.66H158.009V30.195H157.979C157.379 29.28 156.329 28.8 155.324 28.8C153.134 28.8 151.694 30.42 151.694 32.49C151.694 34.56 153.134 36.18 155.324 36.18C156.329 36.18 157.379 35.7 157.979 34.815ZM152.774 32.49C152.774 30.93 153.734 29.655 155.429 29.655C157.004 29.655 158.129 30.885 158.129 32.49C158.129 34.095 157.004 35.31 155.429 35.31C153.734 35.31 152.774 34.05 152.774 32.49ZM162.324 31.95C162.414 30.75 163.419 29.655 164.784 29.655C166.239 29.655 167.049 30.63 167.109 31.95H162.324ZM168.144 32.28C168.144 30.36 166.989 28.8 164.784 28.8C162.789 28.8 161.244 30.375 161.244 32.49C161.244 34.605 162.789 36.18 164.874 36.18C166.029 36.18 167.064 35.745 167.889 34.695L167.124 34.095C166.734 34.725 165.924 35.31 164.874 35.31C163.434 35.31 162.339 34.17 162.309 32.76H168.129C168.144 32.58 168.144 32.415 168.144 32.28ZM181.063 32.49C181.063 30.375 179.503 28.8 177.313 28.8C175.138 28.8 173.578 30.375 173.578 32.49C173.578 34.605 175.138 36.18 177.313 36.18C179.503 36.18 181.063 34.605 181.063 32.49ZM179.983 32.49C179.983 34.065 178.948 35.31 177.313 35.31C175.693 35.31 174.658 34.065 174.658 32.49C174.658 30.915 175.693 29.655 177.313 29.655C178.948 29.655 179.983 30.915 179.983 32.49ZM189.333 36C189.288 35.52 189.273 34.83 189.273 34.455V28.98H188.253V32.58C188.253 34.455 187.203 35.325 186.123 35.325C184.653 35.325 184.218 34.335 184.218 32.865V28.98H183.198V33.285C183.198 35.025 184.083 36.18 185.868 36.18C186.858 36.18 187.878 35.61 188.268 34.8H188.298C188.298 35.1 188.328 35.625 188.358 36H189.333ZM195.139 28.98H193.159V27H192.139V28.98H190.684V29.835H192.139V34.215C192.139 35.76 193.189 36.09 193.939 36.09C194.404 36.09 194.779 36.015 195.139 35.88L195.094 34.995C194.824 35.13 194.494 35.22 194.209 35.22C193.594 35.22 193.159 34.98 193.159 33.93V29.835H195.139V28.98ZM207.46 32.49C207.46 30.375 205.9 28.8 203.71 28.8C201.535 28.8 199.975 30.375 199.975 32.49C199.975 34.605 201.535 36.18 203.71 36.18C205.9 36.18 207.46 34.605 207.46 32.49ZM206.38 32.49C206.38 34.065 205.345 35.31 203.71 35.31C202.09 35.31 201.055 34.065 201.055 32.49C201.055 30.915 202.09 29.655 203.71 29.655C205.345 29.655 206.38 30.915 206.38 32.49ZM212.625 28.98H210.975V27.18C210.975 26.16 211.2 25.38 212.295 25.38C212.565 25.38 212.79 25.425 213 25.485L213.18 24.585C212.925 24.51 212.595 24.48 212.34 24.48C210.735 24.48 209.955 25.47 209.955 27.06V28.98H208.485V29.835H209.955V36H210.975V29.835H212.625V28.98ZM225.725 36V24.66H223.265V29.325H223.235C222.815 28.83 222.05 28.32 220.955 28.32C218.78 28.32 217.43 30.15 217.43 32.235C217.43 34.32 218.735 36.21 220.985 36.21C221.975 36.21 222.95 35.775 223.43 35.025H223.46V36H225.725ZM223.37 32.25C223.37 33.225 222.68 34.17 221.57 34.17C220.4 34.17 219.8 33.21 219.8 32.235C219.8 31.275 220.4 30.33 221.57 30.33C222.68 30.33 223.37 31.305 223.37 32.25ZM234.968 36V28.53H232.508V32.565C232.508 33.42 232.043 34.17 231.188 34.17C230.288 34.17 230.078 33.42 230.078 32.58V28.53H227.603V33.15C227.603 34.65 228.308 36.21 230.318 36.21C231.368 36.21 232.223 35.625 232.568 34.965H232.598V36H234.968ZM241.842 28.38C241.722 28.335 241.512 28.32 241.317 28.32C240.402 28.32 239.667 28.86 239.292 29.61H239.262V28.53H236.892V36H239.352V32.16C239.352 31.545 239.787 30.465 241.107 30.465C241.302 30.465 241.512 30.48 241.737 30.54L241.842 28.38ZM247.015 33C247.015 33.93 246.46 34.53 245.47 34.53C244.975 34.53 244.405 34.335 244.405 33.765C244.405 32.88 245.62 32.745 246.7 32.745H247.015V33ZM243.745 30.885C244.195 30.465 244.885 30.12 245.59 30.12C246.355 30.12 246.94 30.465 246.94 31.2V31.32C244.765 31.32 242.14 31.68 242.14 33.84C242.14 35.595 243.67 36.18 244.855 36.18C245.74 36.18 246.595 35.82 246.97 35.205H247.015V36H249.265V32.235C249.265 29.52 248.335 28.29 245.83 28.29C244.615 28.29 243.37 28.725 242.5 29.55L243.745 30.885ZM259.426 32.235C259.426 30.15 258.076 28.32 255.901 28.32C254.806 28.32 254.041 28.83 253.621 29.325H253.591V24.66H251.131V36H253.396V35.025H253.426C253.906 35.775 254.881 36.21 255.871 36.21C258.121 36.21 259.426 34.32 259.426 32.235ZM257.056 32.235C257.056 33.21 256.456 34.17 255.286 34.17C254.176 34.17 253.486 33.225 253.486 32.25C253.486 31.305 254.176 30.33 255.286 30.33C256.456 30.33 257.056 31.275 257.056 32.235ZM263.508 36V24.66H261.018V36H263.508ZM267.436 31.41C267.496 30.645 268.186 29.985 269.131 29.985C270.106 29.985 270.601 30.63 270.601 31.41H267.436ZM272.866 32.355C272.866 29.805 271.321 28.29 269.116 28.29C266.851 28.29 265.081 29.85 265.081 32.295C265.081 34.815 266.941 36.24 269.191 36.24C270.706 36.24 271.876 35.67 272.581 34.65L270.871 33.57C270.541 34.02 270.001 34.35 269.221 34.35C268.336 34.35 267.511 33.765 267.436 32.94H272.851C272.866 32.76 272.866 32.55 272.866 32.355ZM290.247 28.53H287.697L286.392 33.255H286.362L284.982 28.53H282.507L281.172 33.255H281.127L279.837 28.53H277.182L279.762 36H282.237L283.677 31.35H283.707L285.177 36H287.652L290.247 28.53ZM295.618 33C295.618 33.93 295.063 34.53 294.073 34.53C293.578 34.53 293.008 34.335 293.008 33.765C293.008 32.88 294.223 32.745 295.303 32.745H295.618V33ZM292.348 30.885C292.798 30.465 293.488 30.12 294.193 30.12C294.958 30.12 295.543 30.465 295.543 31.2V31.32C293.368 31.32 290.743 31.68 290.743 33.84C290.743 35.595 292.273 36.18 293.458 36.18C294.343 36.18 295.198 35.82 295.573 35.205H295.618V36H297.868V32.235C297.868 29.52 296.938 28.29 294.433 28.29C293.218 28.29 291.973 28.725 291.103 29.55L292.348 30.885ZM303.983 30.375V28.53H302.228V26.565H299.813V28.53H298.628V30.375H299.828V33.525C299.828 35.115 300.488 36.18 302.483 36.18C303.008 36.18 303.578 36.075 303.908 35.955L303.878 34.155C303.698 34.23 303.398 34.275 303.158 34.275C302.453 34.275 302.228 33.915 302.228 33.225V30.375H303.983ZM307.119 31.41C307.179 30.645 307.869 29.985 308.814 29.985C309.789 29.985 310.284 30.63 310.284 31.41H307.119ZM312.549 32.355C312.549 29.805 311.004 28.29 308.799 28.29C306.534 28.29 304.764 29.85 304.764 32.295C304.764 34.815 306.624 36.24 308.874 36.24C310.389 36.24 311.559 35.67 312.264 34.65L310.554 33.57C310.224 34.02 309.684 34.35 308.904 34.35C308.019 34.35 307.194 33.765 307.119 32.94H312.534C312.549 32.76 312.549 32.55 312.549 32.355ZM319.024 28.38C318.904 28.335 318.694 28.32 318.499 28.32C317.584 28.32 316.849 28.86 316.474 29.61H316.444V28.53H314.074V36H316.534V32.16C316.534 31.545 316.969 30.465 318.289 30.465C318.484 30.465 318.694 30.48 318.919 30.54L319.024 28.38ZM328.332 32.235C328.332 30.15 326.967 28.32 324.792 28.32C323.697 28.32 322.857 28.845 322.407 29.445H322.362V28.53H320.022V39.6H322.482V35.175H322.512C322.977 35.82 323.862 36.21 324.777 36.21C327.027 36.21 328.332 34.32 328.332 32.235ZM325.947 32.235C325.947 33.21 325.362 34.17 324.192 34.17C323.082 34.17 322.392 33.225 322.392 32.25C322.392 31.305 323.082 30.33 324.192 30.33C325.362 30.33 325.947 31.275 325.947 32.235ZM334.83 28.38C334.71 28.335 334.5 28.32 334.305 28.32C333.39 28.32 332.655 28.86 332.28 29.61H332.25V28.53H329.88V36H332.34V32.16C332.34 31.545 332.775 30.465 334.095 30.465C334.29 30.465 334.5 30.48 334.725 30.54L334.83 28.38ZM343.484 32.235C343.484 29.79 341.594 28.29 339.329 28.29C337.079 28.29 335.189 29.79 335.189 32.235C335.189 34.68 337.079 36.24 339.329 36.24C341.594 36.24 343.484 34.68 343.484 32.235ZM341.114 32.235C341.114 33.195 340.499 34.17 339.344 34.17C338.189 34.17 337.574 33.195 337.574 32.235C337.574 31.275 338.174 30.33 339.329 30.33C340.484 30.33 341.114 31.275 341.114 32.235ZM352.961 32.235C352.961 29.79 351.071 28.29 348.806 28.29C346.556 28.29 344.666 29.79 344.666 32.235C344.666 34.68 346.556 36.24 348.806 36.24C351.071 36.24 352.961 34.68 352.961 32.235ZM350.591 32.235C350.591 33.195 349.976 34.17 348.821 34.17C347.666 34.17 347.051 33.195 347.051 32.235C347.051 31.275 347.651 30.33 348.806 30.33C349.961 30.33 350.591 31.275 350.591 32.235ZM359.319 24.525C358.989 24.42 358.554 24.375 358.134 24.375C355.644 24.375 354.924 25.98 354.924 27.81V28.53H353.559V30.375H354.924V36H357.384V30.375H359.049V28.53H357.384V27.78C357.384 27.09 357.579 26.37 358.479 26.37C358.719 26.37 358.974 26.415 359.154 26.475L359.319 24.525ZM28.96 54V49.38C28.96 47.97 28.27 46.32 26.245 46.32C25.135 46.32 24.355 46.815 23.86 47.595C23.44 46.785 22.69 46.32 21.61 46.32C20.485 46.32 19.72 46.935 19.375 47.565H19.345V46.53H16.96V54H19.435V49.95C19.435 49.05 19.885 48.345 20.665 48.345C21.4 48.345 21.73 48.885 21.73 49.74V54H24.19V49.965C24.19 49.125 24.595 48.345 25.435 48.345C26.305 48.345 26.5 49.065 26.5 49.92V54H28.96ZM35.2274 51C35.2274 51.93 34.6724 52.53 33.6824 52.53C33.1874 52.53 32.6174 52.335 32.6174 51.765C32.6174 50.88 33.8324 50.745 34.9124 50.745H35.2274V51ZM31.9574 48.885C32.4074 48.465 33.0974 48.12 33.8024 48.12C34.5674 48.12 35.1524 48.465 35.1524 49.2V49.32C32.9774 49.32 30.3524 49.68 30.3524 51.84C30.3524 53.595 31.8824 54.18 33.0674 54.18C33.9524 54.18 34.8074 53.82 35.1824 53.205H35.2274V54H37.4774V50.235C37.4774 47.52 36.5474 46.29 34.0424 46.29C32.8274 46.29 31.5824 46.725 30.7124 47.55L31.9574 48.885ZM43.592 48.375V46.53H41.837V44.565H39.422V46.53H38.237V48.375H39.437V51.525C39.437 53.115 40.097 54.18 42.092 54.18C42.617 54.18 43.187 54.075 43.517 53.955L43.487 52.155C43.307 52.23 43.007 52.275 42.767 52.275C42.062 52.275 41.837 51.915 41.837 51.225V48.375H43.592ZM46.7281 49.41C46.7881 48.645 47.4781 47.985 48.4231 47.985C49.3981 47.985 49.8931 48.63 49.8931 49.41H46.7281ZM52.1581 50.355C52.1581 47.805 50.6131 46.29 48.4081 46.29C46.1431 46.29 44.3731 47.85 44.3731 50.295C44.3731 52.815 46.2331 54.24 48.4831 54.24C49.9981 54.24 51.1681 53.67 51.8731 52.65L50.1631 51.57C49.8331 52.02 49.2931 52.35 48.5131 52.35C47.6281 52.35 46.8031 51.765 46.7281 50.94H52.1431C52.1581 50.76 52.1581 50.55 52.1581 50.355ZM58.6336 46.38C58.5136 46.335 58.3036 46.32 58.1086 46.32C57.1936 46.32 56.4586 46.86 56.0836 47.61H56.0536V46.53H53.6836V54H56.1436V50.16C56.1436 49.545 56.5786 48.465 57.8986 48.465C58.0936 48.465 58.3036 48.48 58.5286 48.54L58.6336 46.38ZM62.3009 44.145C62.3009 43.395 61.6709 42.795 60.8909 42.795C60.0959 42.795 59.4809 43.425 59.4809 44.145C59.4809 44.88 60.0959 45.495 60.8909 45.495C61.6709 45.495 62.3009 44.91 62.3009 44.145ZM62.1209 54V46.53H59.6609V54H62.1209ZM68.4794 51C68.4794 51.93 67.9244 52.53 66.9344 52.53C66.4394 52.53 65.8694 52.335 65.8694 51.765C65.8694 50.88 67.0844 50.745 68.1644 50.745H68.4794V51ZM65.2094 48.885C65.6594 48.465 66.3494 48.12 67.0544 48.12C67.8194 48.12 68.4044 48.465 68.4044 49.2V49.32C66.2294 49.32 63.6044 49.68 63.6044 51.84C63.6044 53.595 65.1344 54.18 66.3194 54.18C67.2044 54.18 68.0594 53.82 68.4344 53.205H68.4794V54H70.7294V50.235C70.7294 47.52 69.7994 46.29 67.2944 46.29C66.0794 46.29 64.8344 46.725 63.9644 47.55L65.2094 48.885ZM75.0855 54V42.66H72.5955V54H75.0855ZM85.5982 49.695C83.0332 49.695 80.6482 49.89 80.6482 52.05C80.6482 53.61 82.0132 54.18 83.0782 54.18C84.2032 54.18 84.9832 53.79 85.6282 52.86H85.6582C85.6582 53.235 85.7032 53.655 85.7632 54H86.6782C86.6032 53.61 86.5582 52.965 86.5582 52.425V49.35C86.5582 47.64 85.3432 46.8 83.8282 46.8C82.6282 46.8 81.6382 47.235 81.0682 47.805L81.6382 48.48C82.1332 47.985 82.8982 47.655 83.7232 47.655C84.9382 47.655 85.5982 48.255 85.5982 49.47V49.695ZM85.5982 50.49V51.015C85.5982 52.26 84.7882 53.34 83.3482 53.34C82.5532 53.34 81.6982 53.01 81.6982 52.005C81.6982 50.67 83.6332 50.49 85.2982 50.49H85.5982ZM89.1259 46.98C89.1709 47.46 89.1859 48.15 89.1859 48.525V54H90.2059V50.4C90.2059 48.525 91.2559 47.655 92.3359 47.655C93.8059 47.655 94.2409 48.645 94.2409 50.115V54H95.2609V49.695C95.2609 47.955 94.3759 46.8 92.5909 46.8C91.6009 46.8 90.5809 47.37 90.1909 48.18H90.1609C90.1609 47.88 90.1309 47.355 90.1009 46.98H89.1259ZM103.677 52.815H103.707V54H104.727V42.66H103.707V48.195H103.677C103.077 47.28 102.027 46.8 101.022 46.8C98.8318 46.8 97.3918 48.42 97.3918 50.49C97.3918 52.56 98.8318 54.18 101.022 54.18C102.027 54.18 103.077 53.7 103.677 52.815ZM98.4718 50.49C98.4718 48.93 99.4318 47.655 101.127 47.655C102.702 47.655 103.827 48.885 103.827 50.49C103.827 52.095 102.702 53.31 101.127 53.31C99.4318 53.31 98.4718 52.05 98.4718 50.49ZM114.368 46.98H112.388V45H111.368V46.98H109.913V47.835H111.368V52.215C111.368 53.76 112.418 54.09 113.168 54.09C113.633 54.09 114.008 54.015 114.368 53.88L114.323 52.995C114.053 53.13 113.723 53.22 113.438 53.22C112.823 53.22 112.388 52.98 112.388 51.93V47.835H114.368V46.98ZM117.013 48.135V42.66H115.993V54H117.013V50.4C117.013 48.525 118.063 47.655 119.143 47.655C120.613 47.655 121.048 48.645 121.048 50.115V54H122.068V49.695C122.068 47.955 121.183 46.8 119.398 46.8C118.408 46.8 117.418 47.325 117.043 48.135H117.013ZM125.278 49.95C125.368 48.75 126.373 47.655 127.738 47.655C129.193 47.655 130.003 48.63 130.063 49.95H125.278ZM131.098 50.28C131.098 48.36 129.943 46.8 127.738 46.8C125.743 46.8 124.198 48.375 124.198 50.49C124.198 52.605 125.743 54.18 127.828 54.18C128.983 54.18 130.018 53.745 130.843 52.695L130.078 52.095C129.688 52.725 128.878 53.31 127.828 53.31C126.388 53.31 125.293 52.17 125.263 50.76H131.083C131.098 50.58 131.098 50.415 131.098 50.28ZM133.322 46.98H132.182L135.182 53.985L134.612 55.455C134.312 56.25 133.952 56.7 133.262 56.7C132.992 56.7 132.737 56.655 132.512 56.58L132.407 57.51C132.707 57.57 133.022 57.6 133.322 57.6C134.537 57.6 135.107 56.895 135.527 55.815L139.022 46.98H137.912L135.737 52.905H135.707L133.322 46.98ZM148.792 49.695C146.227 49.695 143.842 49.89 143.842 52.05C143.842 53.61 145.207 54.18 146.272 54.18C147.397 54.18 148.177 53.79 148.822 52.86H148.852C148.852 53.235 148.897 53.655 148.957 54H149.872C149.797 53.61 149.752 52.965 149.752 52.425V49.35C149.752 47.64 148.537 46.8 147.022 46.8C145.822 46.8 144.832 47.235 144.262 47.805L144.832 48.48C145.327 47.985 146.092 47.655 146.917 47.655C148.132 47.655 148.792 48.255 148.792 49.47V49.695ZM148.792 50.49V51.015C148.792 52.26 147.982 53.34 146.542 53.34C145.747 53.34 144.892 53.01 144.892 52.005C144.892 50.67 146.827 50.49 148.492 50.49H148.792ZM152.379 48.525V54H153.399V50.4C153.399 48.525 154.374 47.745 155.454 47.745C155.724 47.745 156.054 47.79 156.174 47.835L156.309 46.875C156.099 46.815 155.889 46.8 155.634 46.8C154.644 46.8 153.774 47.37 153.384 48.18H153.354C153.354 47.88 153.324 47.355 153.294 46.98H152.319C152.364 47.46 152.379 48.15 152.379 48.525ZM158.091 49.95C158.181 48.75 159.186 47.655 160.551 47.655C162.006 47.655 162.816 48.63 162.876 49.95H158.091ZM163.911 50.28C163.911 48.36 162.756 46.8 160.551 46.8C158.556 46.8 157.011 48.375 157.011 50.49C157.011 52.605 158.556 54.18 160.641 54.18C161.796 54.18 162.831 53.745 163.656 52.695L162.891 52.095C162.501 52.725 161.691 53.31 160.641 53.31C159.201 53.31 158.106 52.17 158.076 50.76H163.896C163.911 50.58 163.911 50.415 163.911 50.28ZM181.57 46.53H179.02L177.715 51.255H177.685L176.305 46.53H173.83L172.495 51.255H172.45L171.16 46.53H168.505L171.085 54H173.56L175 49.35H175.03L176.5 54H178.975L181.57 46.53ZM185.201 44.145C185.201 43.395 184.571 42.795 183.791 42.795C182.996 42.795 182.381 43.425 182.381 44.145C182.381 44.88 182.996 45.495 183.791 45.495C184.571 45.495 185.201 44.91 185.201 44.145ZM185.021 54V46.53H182.561V54H185.021ZM194.35 54V49.38C194.35 47.88 193.63 46.32 191.62 46.32C190.585 46.32 189.73 46.905 189.385 47.565H189.355V46.53H186.97V54H189.445V49.95C189.445 49.095 189.895 48.345 190.765 48.345C191.65 48.345 191.875 49.095 191.875 49.92V54H194.35ZM204.133 54V42.66H201.673V47.325H201.643C201.223 46.83 200.458 46.32 199.363 46.32C197.188 46.32 195.838 48.15 195.838 50.235C195.838 52.32 197.143 54.21 199.393 54.21C200.383 54.21 201.358 53.775 201.838 53.025H201.868V54H204.133ZM201.778 50.25C201.778 51.225 201.088 52.17 199.978 52.17C198.808 52.17 198.208 51.21 198.208 50.235C198.208 49.275 198.808 48.33 199.978 48.33C201.088 48.33 201.778 49.305 201.778 50.25ZM214.786 46.38C214.666 46.335 214.456 46.32 214.261 46.32C213.346 46.32 212.611 46.86 212.236 47.61H212.206V46.53H209.836V54H212.296V50.16C212.296 49.545 212.731 48.465 214.051 48.465C214.246 48.465 214.456 48.48 214.681 48.54L214.786 46.38ZM217.5 49.41C217.56 48.645 218.25 47.985 219.195 47.985C220.17 47.985 220.665 48.63 220.665 49.41H217.5ZM222.93 50.355C222.93 47.805 221.385 46.29 219.18 46.29C216.915 46.29 215.145 47.85 215.145 50.295C215.145 52.815 217.005 54.24 219.255 54.24C220.77 54.24 221.94 53.67 222.645 52.65L220.935 51.57C220.605 52.02 220.065 52.35 219.285 52.35C218.4 52.35 217.575 51.765 217.5 50.94H222.915C222.93 50.76 222.93 50.55 222.93 50.355ZM230.2 47.34C229.465 46.65 228.31 46.29 227.2 46.29C225.775 46.29 224.095 47.01 224.095 48.795C224.095 50.205 225.235 50.73 226.27 50.97C227.29 51.21 227.755 51.36 227.755 51.825C227.755 52.305 227.275 52.47 226.87 52.47C226.15 52.47 225.475 52.11 225.04 51.63L223.66 53.085C224.44 53.835 225.7 54.24 226.915 54.24C228.445 54.24 230.11 53.58 230.11 51.69C230.11 50.235 228.865 49.665 227.725 49.41C226.765 49.2 226.36 49.08 226.36 48.66C226.36 48.225 226.825 48.06 227.29 48.06C227.89 48.06 228.46 48.36 228.85 48.735L230.2 47.34ZM234.2 44.145C234.2 43.395 233.57 42.795 232.79 42.795C231.995 42.795 231.38 43.425 231.38 44.145C231.38 44.88 231.995 45.495 232.79 45.495C233.57 45.495 234.2 44.91 234.2 44.145ZM234.02 54V46.53H231.56V54H234.02ZM241.714 47.34C240.979 46.65 239.824 46.29 238.714 46.29C237.289 46.29 235.609 47.01 235.609 48.795C235.609 50.205 236.749 50.73 237.784 50.97C238.804 51.21 239.269 51.36 239.269 51.825C239.269 52.305 238.789 52.47 238.384 52.47C237.664 52.47 236.989 52.11 236.554 51.63L235.174 53.085C235.954 53.835 237.214 54.24 238.429 54.24C239.959 54.24 241.624 53.58 241.624 51.69C241.624 50.235 240.379 49.665 239.239 49.41C238.279 49.2 237.874 49.08 237.874 48.66C237.874 48.225 238.339 48.06 238.804 48.06C239.404 48.06 239.974 48.36 240.364 48.735L241.714 47.34ZM247.469 48.375V46.53H245.714V44.565H243.299V46.53H242.114V48.375H243.314V51.525C243.314 53.115 243.974 54.18 245.969 54.18C246.494 54.18 247.064 54.075 247.394 53.955L247.364 52.155C247.184 52.23 246.884 52.275 246.644 52.275C245.939 52.275 245.714 51.915 245.714 51.225V48.375H247.469ZM253.035 51C253.035 51.93 252.48 52.53 251.49 52.53C250.995 52.53 250.425 52.335 250.425 51.765C250.425 50.88 251.64 50.745 252.72 50.745H253.035V51ZM249.765 48.885C250.215 48.465 250.905 48.12 251.61 48.12C252.375 48.12 252.96 48.465 252.96 49.2V49.32C250.785 49.32 248.16 49.68 248.16 51.84C248.16 53.595 249.69 54.18 250.875 54.18C251.76 54.18 252.615 53.82 252.99 53.205H253.035V54H255.285V50.235C255.285 47.52 254.355 46.29 251.85 46.29C250.635 46.29 249.39 46.725 248.52 47.55L249.765 48.885ZM264.501 54V49.38C264.501 47.88 263.781 46.32 261.771 46.32C260.736 46.32 259.881 46.905 259.536 47.565H259.506V46.53H257.121V54H259.596V49.95C259.596 49.095 260.046 48.345 260.916 48.345C261.801 48.345 262.026 49.095 262.026 49.92V54H264.501ZM270.789 48.375V46.53H269.034V44.565H266.619V46.53H265.434V48.375H266.634V51.525C266.634 53.115 267.294 54.18 269.289 54.18C269.814 54.18 270.384 54.075 270.714 53.955L270.684 52.155C270.504 52.23 270.204 52.275 269.964 52.275C269.259 52.275 269.034 51.915 269.034 51.225V48.375H270.789ZM274.75 52.68C274.75 51.855 274.06 51.21 273.25 51.21C272.41 51.21 271.72 51.885 271.72 52.695C271.72 53.52 272.425 54.15 273.25 54.15C274.06 54.15 274.75 53.505 274.75 52.68ZM21.055 67.425L25.03 61.38H23.77L20.545 66.525L17.35 61.38H16L19.975 67.425V72H21.055V67.425ZM32.0008 68.49C32.0008 66.375 30.4408 64.8 28.2508 64.8C26.0758 64.8 24.5158 66.375 24.5158 68.49C24.5158 70.605 26.0758 72.18 28.2508 72.18C30.4408 72.18 32.0008 70.605 32.0008 68.49ZM30.9208 68.49C30.9208 70.065 29.8858 71.31 28.2508 71.31C26.6308 71.31 25.5958 70.065 25.5958 68.49C25.5958 66.915 26.6308 65.655 28.2508 65.655C29.8858 65.655 30.9208 66.915 30.9208 68.49ZM40.2707 72C40.2257 71.52 40.2107 70.83 40.2107 70.455V64.98H39.1907V68.58C39.1907 70.455 38.1407 71.325 37.0607 71.325C35.5907 71.325 35.1557 70.335 35.1557 68.865V64.98H34.1357V69.285C34.1357 71.025 35.0207 72.18 36.8057 72.18C37.7957 72.18 38.8157 71.61 39.2057 70.8H39.2357C39.2357 71.1 39.2657 71.625 39.2957 72H40.2707ZM52.5115 66.015C51.9115 65.205 50.8465 64.8 49.9015 64.8C47.6365 64.8 46.1515 66.375 46.1515 68.49C46.1515 70.605 47.6365 72.18 49.9015 72.18C51.1165 72.18 51.9715 71.7 52.5715 70.965L51.8065 70.395C51.4015 70.935 50.7865 71.31 49.9015 71.31C48.2665 71.31 47.2315 70.08 47.2315 68.49C47.2315 66.885 48.2815 65.655 49.9165 65.655C50.6815 65.655 51.3865 66.045 51.7165 66.585L52.5115 66.015ZM58.5865 67.695C56.0215 67.695 53.6365 67.89 53.6365 70.05C53.6365 71.61 55.0015 72.18 56.0665 72.18C57.1915 72.18 57.9715 71.79 58.6165 70.86H58.6465C58.6465 71.235 58.6915 71.655 58.7515 72H59.6665C59.5915 71.61 59.5465 70.965 59.5465 70.425V67.35C59.5465 65.64 58.3315 64.8 56.8165 64.8C55.6165 64.8 54.6265 65.235 54.0565 65.805L54.6265 66.48C55.1215 65.985 55.8865 65.655 56.7115 65.655C57.9265 65.655 58.5865 66.255 58.5865 67.47V67.695ZM58.5865 68.49V69.015C58.5865 70.26 57.7765 71.34 56.3365 71.34C55.5415 71.34 54.6865 71.01 54.6865 70.005C54.6865 68.67 56.6215 68.49 58.2865 68.49H58.5865ZM62.1142 64.98C62.1592 65.46 62.1742 66.15 62.1742 66.525V72H63.1942V68.4C63.1942 66.525 64.2442 65.655 65.3242 65.655C66.7942 65.655 67.2292 66.645 67.2292 68.115V72H68.2492V67.695C68.2492 65.955 67.3642 64.8 65.5792 64.8C64.5892 64.8 63.5692 65.37 63.1792 66.18H63.1492C63.1492 65.88 63.1192 65.355 63.0892 64.98H62.1142ZM80.715 72C80.67 71.52 80.655 70.83 80.655 70.455V64.98H79.635V68.58C79.635 70.455 78.585 71.325 77.505 71.325C76.035 71.325 75.6 70.335 75.6 68.865V64.98H74.58V69.285C74.58 71.025 75.465 72.18 77.25 72.18C78.24 72.18 79.26 71.61 79.65 70.8H79.68C79.68 71.1 79.71 71.625 79.74 72H80.715ZM87.8709 66.06C87.4209 65.265 86.3859 64.8 85.4109 64.8C84.1359 64.8 82.9059 65.415 82.9059 66.84C82.9059 68.175 84.0909 68.535 84.9159 68.73C86.2509 69.045 86.9859 69.345 86.9859 70.08C86.9859 70.995 86.2059 71.31 85.3359 71.31C84.5109 71.31 83.7459 70.83 83.3859 70.215L82.5759 70.815C83.2209 71.76 84.2859 72.18 85.3509 72.18C86.6409 72.18 87.9909 71.61 87.9909 70.005C87.9909 68.91 87.2109 68.295 85.5609 67.95C84.4059 67.71 83.8809 67.41 83.8809 66.75C83.8809 65.97 84.6309 65.655 85.3659 65.655C86.1459 65.655 86.7909 66.06 87.0909 66.645L87.8709 66.06ZM90.5909 67.95C90.6809 66.75 91.6859 65.655 93.0509 65.655C94.5059 65.655 95.3159 66.63 95.3759 67.95H90.5909ZM96.4109 68.28C96.4109 66.36 95.2559 64.8 93.0509 64.8C91.0559 64.8 89.5109 66.375 89.5109 68.49C89.5109 70.605 91.0559 72.18 93.1409 72.18C94.2959 72.18 95.3309 71.745 96.1559 70.695L95.3909 70.095C95.0009 70.725 94.1909 71.31 93.1409 71.31C91.7009 71.31 90.6059 70.17 90.5759 68.76H96.3959C96.4109 68.58 96.4109 68.415 96.4109 68.28ZM105.52 64.98H103.54V63H102.52V64.98H101.065V65.835H102.52V70.215C102.52 71.76 103.57 72.09 104.32 72.09C104.785 72.09 105.16 72.015 105.52 71.88L105.475 70.995C105.205 71.13 104.875 71.22 104.59 71.22C103.975 71.22 103.54 70.98 103.54 69.93V65.835H105.52V64.98ZM108.166 66.135V60.66H107.146V72H108.166V68.4C108.166 66.525 109.216 65.655 110.296 65.655C111.766 65.655 112.201 66.645 112.201 68.115V72H113.221V67.695C113.221 65.955 112.336 64.8 110.551 64.8C109.561 64.8 108.571 65.325 108.196 66.135H108.166ZM116.431 67.95C116.521 66.75 117.526 65.655 118.891 65.655C120.346 65.655 121.156 66.63 121.216 67.95H116.431ZM122.251 68.28C122.251 66.36 121.096 64.8 118.891 64.8C116.896 64.8 115.351 66.375 115.351 68.49C115.351 70.605 116.896 72.18 118.981 72.18C120.136 72.18 121.171 71.745 121.996 70.695L121.231 70.095C120.841 70.725 120.031 71.31 118.981 71.31C117.541 71.31 116.446 70.17 116.416 68.76H122.236C122.251 68.58 122.251 68.415 122.251 68.28ZM125.45 66.18H125.42C125.42 65.88 125.39 65.355 125.36 64.98H124.385C124.43 65.46 124.445 66.15 124.445 66.525V72H125.465V68.4C125.465 66.525 126.53 65.655 127.505 65.655C128.87 65.655 129.2 66.54 129.2 67.905V72H130.22V68.265C130.22 66.96 130.745 65.655 132.215 65.655C133.535 65.655 134.03 66.645 134.03 68.115V72H135.05V67.695C135.05 65.955 134.165 64.8 132.38 64.8C131.255 64.8 130.4 65.325 129.92 66.285C129.455 65.085 128.525 64.8 127.76 64.8C126.755 64.8 125.855 65.37 125.45 66.18ZM144.407 64.98H142.757V63.18C142.757 62.16 142.982 61.38 144.077 61.38C144.347 61.38 144.572 61.425 144.782 61.485L144.962 60.585C144.707 60.51 144.377 60.48 144.122 60.48C142.517 60.48 141.737 61.47 141.737 63.06V64.98H140.267V65.835H141.737V72H142.757V65.835H144.407V64.98ZM152.836 68.49C152.836 66.375 151.276 64.8 149.086 64.8C146.911 64.8 145.351 66.375 145.351 68.49C145.351 70.605 146.911 72.18 149.086 72.18C151.276 72.18 152.836 70.605 152.836 68.49ZM151.756 68.49C151.756 70.065 150.721 71.31 149.086 71.31C147.466 71.31 146.431 70.065 146.431 68.49C146.431 66.915 147.466 65.655 149.086 65.655C150.721 65.655 151.756 66.915 151.756 68.49ZM155.031 66.525V72H156.051V68.4C156.051 66.525 157.026 65.745 158.106 65.745C158.376 65.745 158.706 65.79 158.826 65.835L158.961 64.875C158.751 64.815 158.541 64.8 158.286 64.8C157.296 64.8 156.426 65.37 156.036 66.18H156.006C156.006 65.88 155.976 65.355 155.946 64.98H154.971C155.016 65.46 155.031 66.15 155.031 66.525ZM162.431 75.495C162.686 75.57 163.031 75.6 163.241 75.6C164.831 75.6 165.236 74.52 165.236 73.395V64.98H164.216V73.23C164.216 74.115 164.081 74.73 163.226 74.73C163.031 74.73 162.776 74.7 162.581 74.64L162.431 75.495ZM165.446 62.28C165.446 61.86 165.086 61.56 164.726 61.56C164.366 61.56 164.006 61.86 164.006 62.28C164.006 62.7 164.366 63 164.726 63C165.086 63 165.446 62.7 165.446 62.28ZM174.026 72C173.981 71.52 173.966 70.83 173.966 70.455V64.98H172.946V68.58C172.946 70.455 171.896 71.325 170.816 71.325C169.346 71.325 168.911 70.335 168.911 68.865V64.98H167.891V69.285C167.891 71.025 168.776 72.18 170.561 72.18C171.551 72.18 172.571 71.61 172.961 70.8H172.991C172.991 71.1 173.021 71.625 173.051 72H174.026ZM181.181 66.06C180.731 65.265 179.696 64.8 178.721 64.8C177.446 64.8 176.216 65.415 176.216 66.84C176.216 68.175 177.401 68.535 178.226 68.73C179.561 69.045 180.296 69.345 180.296 70.08C180.296 70.995 179.516 71.31 178.646 71.31C177.821 71.31 177.056 70.83 176.696 70.215L175.886 70.815C176.531 71.76 177.596 72.18 178.661 72.18C179.951 72.18 181.301 71.61 181.301 70.005C181.301 68.91 180.521 68.295 178.871 67.95C177.716 67.71 177.191 67.41 177.191 66.75C177.191 65.97 177.941 65.655 178.676 65.655C179.456 65.655 180.101 66.06 180.401 66.645L181.181 66.06ZM186.496 64.98H184.516V63H183.496V64.98H182.041V65.835H183.496V70.215C183.496 71.76 184.546 72.09 185.296 72.09C185.761 72.09 186.136 72.015 186.496 71.88L186.451 70.995C186.181 71.13 185.851 71.22 185.566 71.22C184.951 71.22 184.516 70.98 184.516 69.93V65.835H186.496V64.98ZM192.922 70.815C193.522 71.7 194.572 72.18 195.577 72.18C197.767 72.18 199.207 70.56 199.207 68.49C199.207 66.42 197.767 64.8 195.577 64.8C194.572 64.8 193.522 65.28 192.922 66.195H192.892V60.66H191.872V72H192.892V70.815H192.922ZM198.127 68.49C198.127 70.05 197.167 71.31 195.472 71.31C193.897 71.31 192.772 70.095 192.772 68.49C192.772 66.885 193.897 65.655 195.472 65.655C197.167 65.655 198.127 66.93 198.127 68.49ZM201.963 67.95C202.053 66.75 203.058 65.655 204.423 65.655C205.878 65.655 206.688 66.63 206.748 67.95H201.963ZM207.783 68.28C207.783 66.36 206.628 64.8 204.423 64.8C202.428 64.8 200.883 66.375 200.883 68.49C200.883 70.605 202.428 72.18 204.513 72.18C205.668 72.18 206.703 71.745 207.528 70.695L206.763 70.095C206.373 70.725 205.563 71.31 204.513 71.31C203.073 71.31 201.978 70.17 201.948 68.76H207.768C207.783 68.58 207.783 68.415 207.783 68.28ZM211.012 64.98H209.992V72H211.012V64.98ZM211.222 62.28C211.222 61.86 210.862 61.56 210.502 61.56C210.142 61.56 209.782 61.86 209.782 62.28C209.782 62.7 210.142 63 210.502 63C210.862 63 211.222 62.7 211.222 62.28ZM213.667 64.98C213.712 65.46 213.727 66.15 213.727 66.525V72H214.747V68.4C214.747 66.525 215.797 65.655 216.877 65.655C218.347 65.655 218.782 66.645 218.782 68.115V72H219.802V67.695C219.802 65.955 218.917 64.8 217.132 64.8C216.142 64.8 215.122 65.37 214.732 66.18H214.702C214.702 65.88 214.672 65.355 214.642 64.98H213.667ZM222.083 74.19C222.908 75.06 224.168 75.6 225.458 75.6C228.563 75.6 229.268 73.47 229.268 71.94V64.98H228.248V66.195H228.218C227.663 65.295 226.583 64.8 225.563 64.8C223.373 64.8 221.933 66.435 221.933 68.43C221.933 70.485 223.373 72 225.563 72C226.583 72 227.678 71.49 228.218 70.62H228.248V71.94C228.248 73.455 227.513 74.7 225.503 74.7C224.438 74.7 223.373 74.13 222.818 73.41L222.083 74.19ZM223.013 68.4C223.013 66.93 223.973 65.655 225.668 65.655C227.243 65.655 228.368 66.93 228.368 68.4C228.368 70.02 227.243 71.13 225.668 71.13C223.973 71.13 223.013 69.87 223.013 68.4ZM242.645 68.49C242.645 66.375 241.085 64.8 238.895 64.8C236.72 64.8 235.16 66.375 235.16 68.49C235.16 70.605 236.72 72.18 238.895 72.18C241.085 72.18 242.645 70.605 242.645 68.49ZM241.565 68.49C241.565 70.065 240.53 71.31 238.895 71.31C237.275 71.31 236.24 70.065 236.24 68.49C236.24 66.915 237.275 65.655 238.895 65.655C240.53 65.655 241.565 66.915 241.565 68.49ZM250.915 72C250.87 71.52 250.855 70.83 250.855 70.455V64.98H249.835V68.58C249.835 70.455 248.785 71.325 247.705 71.325C246.235 71.325 245.8 70.335 245.8 68.865V64.98H244.78V69.285C244.78 71.025 245.665 72.18 247.45 72.18C248.44 72.18 249.46 71.61 249.85 70.8H249.88C249.88 71.1 249.91 71.625 249.94 72H250.915ZM256.721 64.98H254.741V63H253.721V64.98H252.266V65.835H253.721V70.215C253.721 71.76 254.771 72.09 255.521 72.09C255.986 72.09 256.361 72.015 256.721 71.88L256.676 70.995C256.406 71.13 256.076 71.22 255.791 71.22C255.176 71.22 254.741 70.98 254.741 69.93V65.835H256.721V64.98ZM264.092 70.815H264.122V72H265.142V60.66H264.122V66.195H264.092C263.492 65.28 262.442 64.8 261.437 64.8C259.247 64.8 257.807 66.42 257.807 68.49C257.807 70.56 259.247 72.18 261.437 72.18C262.442 72.18 263.492 71.7 264.092 70.815ZM258.887 68.49C258.887 66.93 259.847 65.655 261.542 65.655C263.117 65.655 264.242 66.885 264.242 68.49C264.242 70.095 263.117 71.31 261.542 71.31C259.847 71.31 258.887 70.05 258.887 68.49ZM274.843 68.49C274.843 66.375 273.283 64.8 271.093 64.8C268.918 64.8 267.358 66.375 267.358 68.49C267.358 70.605 268.918 72.18 271.093 72.18C273.283 72.18 274.843 70.605 274.843 68.49ZM273.763 68.49C273.763 70.065 272.728 71.31 271.093 71.31C269.473 71.31 268.438 70.065 268.438 68.49C268.438 66.915 269.473 65.655 271.093 65.655C272.728 65.655 273.763 66.915 273.763 68.49ZM284.013 68.49C284.013 66.375 282.453 64.8 280.263 64.8C278.088 64.8 276.528 66.375 276.528 68.49C276.528 70.605 278.088 72.18 280.263 72.18C282.453 72.18 284.013 70.605 284.013 68.49ZM282.933 68.49C282.933 70.065 281.898 71.31 280.263 71.31C278.643 71.31 277.608 70.065 277.608 68.49C277.608 66.915 278.643 65.655 280.263 65.655C281.898 65.655 282.933 66.915 282.933 68.49ZM286.207 66.525V72H287.227V68.4C287.227 66.525 288.202 65.745 289.282 65.745C289.552 65.745 289.882 65.79 290.002 65.835L290.137 64.875C289.927 64.815 289.717 64.8 289.462 64.8C288.472 64.8 287.602 65.37 287.212 66.18H287.182C287.182 65.88 287.152 65.355 287.122 64.98H286.147C286.192 65.46 286.207 66.15 286.207 66.525ZM296.128 66.06C295.678 65.265 294.643 64.8 293.668 64.8C292.393 64.8 291.163 65.415 291.163 66.84C291.163 68.175 292.348 68.535 293.173 68.73C294.508 69.045 295.243 69.345 295.243 70.08C295.243 70.995 294.463 71.31 293.593 71.31C292.768 71.31 292.003 70.83 291.643 70.215L290.833 70.815C291.478 71.76 292.543 72.18 293.608 72.18C294.898 72.18 296.248 71.61 296.248 70.005C296.248 68.91 295.468 68.295 293.818 67.95C292.663 67.71 292.138 67.41 292.138 66.75C292.138 65.97 292.888 65.655 293.623 65.655C294.403 65.655 295.048 66.06 295.348 66.645L296.128 66.06ZM299.673 70.575H298.608L297.603 74.1H298.458L299.673 70.575ZM308.635 64.98H306.655V63H305.635V64.98H304.18V65.835H305.635V70.215C305.635 71.76 306.685 72.09 307.435 72.09C307.9 72.09 308.275 72.015 308.635 71.88L308.59 70.995C308.32 71.13 307.99 71.22 307.705 71.22C307.09 71.22 306.655 70.98 306.655 69.93V65.835H308.635V64.98ZM317.206 68.49C317.206 66.375 315.646 64.8 313.456 64.8C311.281 64.8 309.721 66.375 309.721 68.49C309.721 70.605 311.281 72.18 313.456 72.18C315.646 72.18 317.206 70.605 317.206 68.49ZM316.126 68.49C316.126 70.065 315.091 71.31 313.456 71.31C311.836 71.31 310.801 70.065 310.801 68.49C310.801 66.915 311.836 65.655 313.456 65.655C315.091 65.655 316.126 66.915 316.126 68.49ZM324.156 66.18H324.126C324.126 65.88 324.096 65.355 324.066 64.98H323.091C323.136 65.46 323.151 66.15 323.151 66.525V72H324.171V68.4C324.171 66.525 325.236 65.655 326.211 65.655C327.576 65.655 327.906 66.54 327.906 67.905V72H328.926V68.265C328.926 66.96 329.451 65.655 330.921 65.655C332.241 65.655 332.736 66.645 332.736 68.115V72H333.756V67.695C333.756 65.955 332.871 64.8 331.086 64.8C329.961 64.8 329.106 65.325 328.626 66.285C328.161 65.085 327.231 64.8 326.466 64.8C325.461 64.8 324.561 65.37 324.156 66.18ZM343.368 68.49C343.368 66.375 341.808 64.8 339.618 64.8C337.443 64.8 335.883 66.375 335.883 68.49C335.883 70.605 337.443 72.18 339.618 72.18C341.808 72.18 343.368 70.605 343.368 68.49ZM342.288 68.49C342.288 70.065 341.253 71.31 339.618 71.31C337.998 71.31 336.963 70.065 336.963 68.49C336.963 66.915 337.998 65.655 339.618 65.655C341.253 65.655 342.288 66.915 342.288 68.49ZM345.563 66.525V72H346.583V68.4C346.583 66.525 347.558 65.745 348.638 65.745C348.908 65.745 349.238 65.79 349.358 65.835L349.493 64.875C349.283 64.815 349.073 64.8 348.818 64.8C347.828 64.8 346.958 65.37 346.568 66.18H346.538C346.538 65.88 346.508 65.355 346.478 64.98H345.503C345.548 65.46 345.563 66.15 345.563 66.525ZM351.274 67.95C351.364 66.75 352.369 65.655 353.734 65.655C355.189 65.655 355.999 66.63 356.059 67.95H351.274ZM357.094 68.28C357.094 66.36 355.939 64.8 353.734 64.8C351.739 64.8 350.194 66.375 350.194 68.49C350.194 70.605 351.739 72.18 353.824 72.18C354.979 72.18 356.014 71.745 356.839 70.695L356.074 70.095C355.684 70.725 354.874 71.31 353.824 71.31C352.384 71.31 351.289 70.17 351.259 68.76H357.079C357.094 68.58 357.094 68.415 357.094 68.28ZM23.53 83.295C22.945 82.695 21.82 82.29 20.755 82.29C18.43 82.29 16.585 83.835 16.585 86.265C16.585 88.74 18.415 90.24 20.77 90.24C21.865 90.24 22.915 89.88 23.53 89.28L22.165 87.615C21.865 87.975 21.325 88.17 20.83 88.17C19.75 88.17 19.075 87.3 19.075 86.265C19.075 85.23 19.765 84.345 20.8 84.345C21.295 84.345 21.835 84.585 22.105 84.945L23.53 83.295ZM31.8989 90V85.38C31.8989 83.88 31.1939 82.32 29.1689 82.32C28.1339 82.32 27.3539 82.875 27.0239 83.475H26.9939V78.66H24.5339V90H26.9939V85.965C26.9939 85.08 27.4739 84.375 28.3289 84.375C29.2139 84.375 29.4239 85.11 29.4239 85.95V90H31.8989ZM38.1718 87C38.1718 87.93 37.6168 88.53 36.6268 88.53C36.1318 88.53 35.5618 88.335 35.5618 87.765C35.5618 86.88 36.7768 86.745 37.8568 86.745H38.1718V87ZM34.9018 84.885C35.3518 84.465 36.0418 84.12 36.7468 84.12C37.5118 84.12 38.0968 84.465 38.0968 85.2V85.32C35.9218 85.32 33.2968 85.68 33.2968 87.84C33.2968 89.595 34.8268 90.18 36.0118 90.18C36.8968 90.18 37.7518 89.82 38.1268 89.205H38.1718V90H40.4218V86.235C40.4218 83.52 39.4918 82.29 36.9868 82.29C35.7718 82.29 34.5268 82.725 33.6568 83.55L34.9018 84.885ZM44.7779 90V78.66H42.2879V90H44.7779ZM49.2456 90V78.66H46.7556V90H49.2456ZM53.1734 85.41C53.2334 84.645 53.9234 83.985 54.8684 83.985C55.8434 83.985 56.3384 84.63 56.3384 85.41H53.1734ZM58.6034 86.355C58.6034 83.805 57.0584 82.29 54.8534 82.29C52.5884 82.29 50.8184 83.85 50.8184 86.295C50.8184 88.815 52.6784 90.24 54.9284 90.24C56.4434 90.24 57.6134 89.67 58.3184 88.65L56.6084 87.57C56.2784 88.02 55.7384 88.35 54.9584 88.35C54.0734 88.35 53.2484 87.765 53.1734 86.94H58.5884C58.6034 86.76 58.6034 86.55 58.6034 86.355ZM67.5089 90V85.38C67.5089 83.88 66.7889 82.32 64.7789 82.32C63.7439 82.32 62.8889 82.905 62.5439 83.565H62.5139V82.53H60.1289V90H62.6039V85.95C62.6039 85.095 63.0539 84.345 63.9239 84.345C64.8089 84.345 65.0339 85.095 65.0339 85.92V90H67.5089ZM77.2921 89.295V82.53H74.9671V83.49H74.9371C74.4121 82.695 73.4821 82.32 72.5521 82.32C70.3021 82.32 68.9971 84.165 68.9971 86.235C68.9971 88.305 70.3021 90.075 72.5671 90.075C73.5571 90.075 74.3671 89.685 74.8321 89.085H74.8771V89.535C74.8771 90.78 74.2021 91.62 72.7621 91.62C71.9221 91.62 71.0071 91.305 70.2871 90.675L69.0571 92.43C70.0621 93.18 71.5921 93.6 72.8971 93.6C75.5521 93.6 77.2921 92.22 77.2921 89.295ZM74.9521 86.22C74.9521 87.24 74.2621 88.125 73.1371 88.125C72.0271 88.125 71.3821 87.21 71.3821 86.22C71.3821 85.185 72.0271 84.33 73.1371 84.33C74.2471 84.33 74.9521 85.2 74.9521 86.22ZM81.9152 80.145C81.9152 79.395 81.2852 78.795 80.5052 78.795C79.7102 78.795 79.0952 79.425 79.0952 80.145C79.0952 80.88 79.7102 81.495 80.5052 81.495C81.2852 81.495 81.9152 80.91 81.9152 80.145ZM81.7352 90V82.53H79.2752V90H81.7352ZM91.0636 90V85.38C91.0636 83.88 90.3436 82.32 88.3336 82.32C87.2986 82.32 86.4436 82.905 86.0986 83.565H86.0686V82.53H83.6836V90H86.1586V85.95C86.1586 85.095 86.6086 84.345 87.4786 84.345C88.3636 84.345 88.5886 85.095 88.5886 85.92V90H91.0636ZM100.847 89.295V82.53H98.5218V83.49H98.4918C97.9668 82.695 97.0368 82.32 96.1068 82.32C93.8568 82.32 92.5518 84.165 92.5518 86.235C92.5518 88.305 93.8568 90.075 96.1218 90.075C97.1118 90.075 97.9218 89.685 98.3868 89.085H98.4318V89.535C98.4318 90.78 97.7568 91.62 96.3168 91.62C95.4768 91.62 94.5618 91.305 93.8418 90.675L92.6118 92.43C93.6168 93.18 95.1468 93.6 96.4518 93.6C99.1068 93.6 100.847 92.22 100.847 89.295ZM98.5068 86.22C98.5068 87.24 97.8168 88.125 96.6918 88.125C95.5818 88.125 94.9368 87.21 94.9368 86.22C94.9368 85.185 95.5818 84.33 96.6918 84.33C97.8018 84.33 98.5068 85.2 98.5068 86.22ZM110.96 87C110.96 87.93 110.405 88.53 109.415 88.53C108.92 88.53 108.35 88.335 108.35 87.765C108.35 86.88 109.565 86.745 110.645 86.745H110.96V87ZM107.69 84.885C108.14 84.465 108.83 84.12 109.535 84.12C110.3 84.12 110.885 84.465 110.885 85.2V85.32C108.71 85.32 106.085 85.68 106.085 87.84C106.085 89.595 107.615 90.18 108.8 90.18C109.685 90.18 110.54 89.82 110.915 89.205H110.96V90H113.21V86.235C113.21 83.52 112.28 82.29 109.775 82.29C108.56 82.29 107.315 82.725 106.445 83.55L107.69 84.885ZM121.616 83.295C121.031 82.695 119.906 82.29 118.841 82.29C116.516 82.29 114.671 83.835 114.671 86.265C114.671 88.74 116.501 90.24 118.856 90.24C119.951 90.24 121.001 89.88 121.616 89.28L120.251 87.615C119.951 87.975 119.411 88.17 118.916 88.17C117.836 88.17 117.161 87.3 117.161 86.265C117.161 85.23 117.851 84.345 118.886 84.345C119.381 84.345 119.921 84.585 120.191 84.945L121.616 83.295ZM127.015 84.375V82.53H125.26V80.565H122.845V82.53H121.66V84.375H122.86V87.525C122.86 89.115 123.52 90.18 125.515 90.18C126.04 90.18 126.61 90.075 126.94 89.955L126.91 88.155C126.73 88.23 126.43 88.275 126.19 88.275C125.485 88.275 125.26 87.915 125.26 87.225V84.375H127.015ZM130.841 80.145C130.841 79.395 130.211 78.795 129.431 78.795C128.636 78.795 128.021 79.425 128.021 80.145C128.021 80.88 128.636 81.495 129.431 81.495C130.211 81.495 130.841 80.91 130.841 80.145ZM130.661 90V82.53H128.201V90H130.661ZM140.169 82.53H137.544L135.969 87.375H135.924L134.349 82.53H131.634L134.574 90H137.229L140.169 82.53ZM143.79 80.145C143.79 79.395 143.16 78.795 142.38 78.795C141.585 78.795 140.97 79.425 140.97 80.145C140.97 80.88 141.585 81.495 142.38 81.495C143.16 81.495 143.79 80.91 143.79 80.145ZM143.61 90V82.53H141.15V90H143.61ZM149.984 84.375V82.53H148.229V80.565H145.814V82.53H144.629V84.375H145.829V87.525C145.829 89.115 146.489 90.18 148.484 90.18C149.009 90.18 149.579 90.075 149.909 89.955L149.879 88.155C149.699 88.23 149.399 88.275 149.159 88.275C148.454 88.275 148.229 87.915 148.229 87.225V84.375H149.984ZM153.81 80.145C153.81 79.395 153.18 78.795 152.4 78.795C151.605 78.795 150.99 79.425 150.99 80.145C150.99 80.88 151.605 81.495 152.4 81.495C153.18 81.495 153.81 80.91 153.81 80.145ZM153.63 90V82.53H151.17V90H153.63ZM157.558 85.41C157.618 84.645 158.308 83.985 159.253 83.985C160.228 83.985 160.723 84.63 160.723 85.41H157.558ZM162.988 86.355C162.988 83.805 161.443 82.29 159.238 82.29C156.973 82.29 155.203 83.85 155.203 86.295C155.203 88.815 157.063 90.24 159.313 90.24C160.828 90.24 161.998 89.67 162.703 88.65L160.993 87.57C160.663 88.02 160.123 88.35 159.343 88.35C158.458 88.35 157.633 87.765 157.558 86.94H162.973C162.988 86.76 162.988 86.55 162.988 86.355ZM170.259 83.34C169.524 82.65 168.369 82.29 167.259 82.29C165.834 82.29 164.154 83.01 164.154 84.795C164.154 86.205 165.294 86.73 166.329 86.97C167.349 87.21 167.814 87.36 167.814 87.825C167.814 88.305 167.334 88.47 166.929 88.47C166.209 88.47 165.534 88.11 165.099 87.63L163.719 89.085C164.499 89.835 165.759 90.24 166.974 90.24C168.504 90.24 170.169 89.58 170.169 87.69C170.169 86.235 168.924 85.665 167.784 85.41C166.824 85.2 166.419 85.08 166.419 84.66C166.419 84.225 166.884 84.06 167.349 84.06C167.949 84.06 168.519 84.36 168.909 84.735L170.259 83.34ZM174.394 88.68C174.394 87.855 173.704 87.21 172.894 87.21C172.054 87.21 171.364 87.885 171.364 88.695C171.364 89.52 172.069 90.15 172.894 90.15C173.704 90.15 174.394 89.505 174.394 88.68ZM26.215 98.535C25.315 97.65 24.055 97.11 22.375 97.11C19.21 97.11 16.84 99.465 16.84 102.69C16.84 105.915 19.165 108.27 22.375 108.27C23.815 108.27 25.18 107.925 26.335 107.235V102.45H22.78V103.395H25.255V106.62C24.64 107.025 23.59 107.31 22.39 107.31C19.66 107.31 17.98 105.165 17.98 102.69C17.98 100.215 19.66 98.055 22.39 98.055C23.71 98.055 24.73 98.505 25.465 99.285L26.215 98.535ZM29.6095 103.95C29.6995 102.75 30.7045 101.655 32.0695 101.655C33.5245 101.655 34.3345 102.63 34.3945 103.95H29.6095ZM35.4295 104.28C35.4295 102.36 34.2745 100.8 32.0695 100.8C30.0745 100.8 28.5295 102.375 28.5295 104.49C28.5295 106.605 30.0745 108.18 32.1595 108.18C33.3145 108.18 34.3495 107.745 35.1745 106.695L34.4095 106.095C34.0195 106.725 33.2095 107.31 32.1595 107.31C30.7195 107.31 29.6245 106.17 29.5945 104.76H35.4145C35.4295 104.58 35.4295 104.415 35.4295 104.28ZM40.7884 100.98H38.8084V99H37.7884V100.98H36.3334V101.835H37.7884V106.215C37.7884 107.76 38.8384 108.09 39.5884 108.09C40.0534 108.09 40.4284 108.015 40.7884 107.88L40.7434 106.995C40.4734 107.13 40.1434 107.22 39.8584 107.22C39.2434 107.22 38.8084 106.98 38.8084 105.93V101.835H40.7884V100.98ZM53.1092 104.49C53.1092 102.375 51.5492 100.8 49.3592 100.8C47.1842 100.8 45.6242 102.375 45.6242 104.49C45.6242 106.605 47.1842 108.18 49.3592 108.18C51.5492 108.18 53.1092 106.605 53.1092 104.49ZM52.0292 104.49C52.0292 106.065 50.9942 107.31 49.3592 107.31C47.7392 107.31 46.7042 106.065 46.7042 104.49C46.7042 102.915 47.7392 101.655 49.3592 101.655C50.9942 101.655 52.0292 102.915 52.0292 104.49ZM61.3791 108C61.3341 107.52 61.3191 106.83 61.3191 106.455V100.98H60.2991V104.58C60.2991 106.455 59.2491 107.325 58.1691 107.325C56.6991 107.325 56.2641 106.335 56.2641 104.865V100.98H55.2441V105.285C55.2441 107.025 56.1291 108.18 57.9141 108.18C58.9041 108.18 59.9241 107.61 60.3141 106.8H60.3441C60.3441 107.1 60.3741 107.625 60.4041 108H61.3791ZM67.1849 100.98H65.2049V99H64.1849V100.98H62.7299V101.835H64.1849V106.215C64.1849 107.76 65.2349 108.09 65.9849 108.09C66.4499 108.09 66.8249 108.015 67.1849 107.88L67.1399 106.995C66.8699 107.13 66.5399 107.22 66.2549 107.22C65.6399 107.22 65.2049 106.98 65.2049 105.93V101.835H67.1849V100.98ZM75.6957 100.98H73.7157V99H72.6957V100.98H71.2407V101.835H72.6957V106.215C72.6957 107.76 73.7457 108.09 74.4957 108.09C74.9607 108.09 75.3357 108.015 75.6957 107.88L75.6507 106.995C75.3807 107.13 75.0507 107.22 74.7657 107.22C74.1507 107.22 73.7157 106.98 73.7157 105.93V101.835H75.6957V100.98ZM78.3414 102.135V96.66H77.3214V108H78.3414V104.4C78.3414 102.525 79.3914 101.655 80.4714 101.655C81.9414 101.655 82.3764 102.645 82.3764 104.115V108H83.3964V103.695C83.3964 101.955 82.5114 100.8 80.7264 100.8C79.7364 100.8 78.7464 101.325 78.3714 102.135H78.3414ZM86.6065 103.95C86.6965 102.75 87.7015 101.655 89.0665 101.655C90.5215 101.655 91.3315 102.63 91.3915 103.95H86.6065ZM92.4265 104.28C92.4265 102.36 91.2715 100.8 89.0665 100.8C87.0715 100.8 85.5265 102.375 85.5265 104.49C85.5265 106.605 87.0715 108.18 89.1565 108.18C90.3115 108.18 91.3465 107.745 92.1715 106.695L91.4065 106.095C91.0165 106.725 90.2065 107.31 89.1565 107.31C87.7165 107.31 86.6215 106.17 86.5915 104.76H92.4115C92.4265 104.58 92.4265 104.415 92.4265 104.28ZM94.6205 102.525V108H95.6405V104.4C95.6405 102.525 96.6155 101.745 97.6955 101.745C97.9655 101.745 98.2955 101.79 98.4155 101.835L98.5505 100.875C98.3405 100.815 98.1305 100.8 97.8755 100.8C96.8855 100.8 96.0155 101.37 95.6255 102.18H95.5955C95.5955 101.88 95.5655 101.355 95.5355 100.98H94.5605C94.6055 101.46 94.6205 102.15 94.6205 102.525ZM100.332 103.95C100.422 102.75 101.427 101.655 102.792 101.655C104.247 101.655 105.057 102.63 105.117 103.95H100.332ZM106.152 104.28C106.152 102.36 104.997 100.8 102.792 100.8C100.797 100.8 99.2521 102.375 99.2521 104.49C99.2521 106.605 100.797 108.18 102.882 108.18C104.037 108.18 105.072 107.745 105.897 106.695L105.132 106.095C104.742 106.725 103.932 107.31 102.882 107.31C101.442 107.31 100.347 106.17 100.317 104.76H106.137C106.152 104.58 106.152 104.415 106.152 104.28ZM116.521 103.695C113.956 103.695 111.571 103.89 111.571 106.05C111.571 107.61 112.936 108.18 114.001 108.18C115.126 108.18 115.906 107.79 116.551 106.86H116.581C116.581 107.235 116.626 107.655 116.686 108H117.601C117.526 107.61 117.481 106.965 117.481 106.425V103.35C117.481 101.64 116.266 100.8 114.751 100.8C113.551 100.8 112.561 101.235 111.991 101.805L112.561 102.48C113.056 101.985 113.821 101.655 114.646 101.655C115.861 101.655 116.521 102.255 116.521 103.47V103.695ZM116.521 104.49V105.015C116.521 106.26 115.711 107.34 114.271 107.34C113.476 107.34 112.621 107.01 112.621 106.005C112.621 104.67 114.556 104.49 116.221 104.49H116.521ZM120.049 100.98C120.094 101.46 120.109 102.15 120.109 102.525V108H121.129V104.4C121.129 102.525 122.179 101.655 123.259 101.655C124.729 101.655 125.164 102.645 125.164 104.115V108H126.184V103.695C126.184 101.955 125.299 100.8 123.514 100.8C122.524 100.8 121.504 101.37 121.114 102.18H121.084C121.084 101.88 121.054 101.355 121.024 100.98H120.049ZM134.6 106.815H134.63V108H135.65V96.66H134.63V102.195H134.6C134 101.28 132.95 100.8 131.945 100.8C129.755 100.8 128.315 102.42 128.315 104.49C128.315 106.56 129.755 108.18 131.945 108.18C132.95 108.18 134 107.7 134.6 106.815ZM129.395 104.49C129.395 102.93 130.355 101.655 132.05 101.655C133.625 101.655 134.75 102.885 134.75 104.49C134.75 106.095 133.625 107.31 132.05 107.31C130.355 107.31 129.395 106.05 129.395 104.49ZM150.045 104.235C150.045 102.15 148.68 100.32 146.505 100.32C145.41 100.32 144.57 100.845 144.12 101.445H144.075V100.53H141.735V111.6H144.195V107.175H144.225C144.69 107.82 145.575 108.21 146.49 108.21C148.74 108.21 150.045 106.32 150.045 104.235ZM147.66 104.235C147.66 105.21 147.075 106.17 145.905 106.17C144.795 106.17 144.105 105.225 144.105 104.25C144.105 103.305 144.795 102.33 145.905 102.33C147.075 102.33 147.66 103.275 147.66 104.235ZM158.884 108V100.53H156.424V104.565C156.424 105.42 155.959 106.17 155.104 106.17C154.204 106.17 153.994 105.42 153.994 104.58V100.53H151.519V105.15C151.519 106.65 152.224 108.21 154.234 108.21C155.284 108.21 156.139 107.625 156.484 106.965H156.514V108H158.884ZM166.553 101.34C165.818 100.65 164.663 100.29 163.553 100.29C162.128 100.29 160.448 101.01 160.448 102.795C160.448 104.205 161.588 104.73 162.623 104.97C163.643 105.21 164.108 105.36 164.108 105.825C164.108 106.305 163.628 106.47 163.223 106.47C162.503 106.47 161.828 106.11 161.393 105.63L160.013 107.085C160.793 107.835 162.053 108.24 163.268 108.24C164.798 108.24 166.463 107.58 166.463 105.69C166.463 104.235 165.218 103.665 164.078 103.41C163.118 103.2 162.713 103.08 162.713 102.66C162.713 102.225 163.178 102.06 163.643 102.06C164.243 102.06 164.813 102.36 165.203 102.735L166.553 101.34ZM175.278 108V103.38C175.278 101.88 174.573 100.32 172.548 100.32C171.513 100.32 170.733 100.875 170.403 101.475H170.373V96.66H167.913V108H170.373V103.965C170.373 103.08 170.853 102.375 171.708 102.375C172.593 102.375 172.803 103.11 172.803 103.95V108H175.278ZM188.451 100.53H185.841L184.356 105.33H184.311L182.646 100.53H179.916L183.036 107.88L182.796 108.495C182.556 109.14 182.301 109.5 181.536 109.5C181.296 109.5 180.981 109.44 180.741 109.365L180.471 111.435C180.831 111.525 181.356 111.6 181.821 111.6C183.696 111.6 184.506 110.685 185.106 109.125L188.451 100.53ZM197.321 104.235C197.321 101.79 195.431 100.29 193.166 100.29C190.916 100.29 189.026 101.79 189.026 104.235C189.026 106.68 190.916 108.24 193.166 108.24C195.431 108.24 197.321 106.68 197.321 104.235ZM194.951 104.235C194.951 105.195 194.336 106.17 193.181 106.17C192.026 106.17 191.411 105.195 191.411 104.235C191.411 103.275 192.011 102.33 193.166 102.33C194.321 102.33 194.951 103.275 194.951 104.235ZM206.169 108V100.53H203.709V104.565C203.709 105.42 203.244 106.17 202.389 106.17C201.489 106.17 201.279 105.42 201.279 104.58V100.53H198.804V105.15C198.804 106.65 199.509 108.21 201.519 108.21C202.569 108.21 203.424 107.625 203.769 106.965H203.799V108H206.169ZM213.043 100.38C212.923 100.335 212.713 100.32 212.518 100.32C211.603 100.32 210.868 100.86 210.493 101.61H210.463V100.53H208.093V108H210.553V104.16C210.553 103.545 210.988 102.465 212.308 102.465C212.503 102.465 212.713 102.48 212.938 102.54L213.043 100.38ZM227.27 106.53L225.485 104.85C225.035 105.48 224.24 105.93 223.235 105.93C221.465 105.93 220.22 104.61 220.22 102.675C220.22 100.8 221.495 99.42 223.28 99.42C224.09 99.42 224.945 99.735 225.425 100.395L227.165 98.655C226.28 97.635 224.675 97.095 223.19 97.095C219.95 97.095 217.43 99.27 217.43 102.675C217.43 106.005 219.875 108.285 223.145 108.285C224.93 108.285 226.34 107.61 227.27 106.53ZM235.979 104.235C235.979 101.79 234.089 100.29 231.824 100.29C229.574 100.29 227.684 101.79 227.684 104.235C227.684 106.68 229.574 108.24 231.824 108.24C234.089 108.24 235.979 106.68 235.979 104.235ZM233.609 104.235C233.609 105.195 232.994 106.17 231.839 106.17C230.684 106.17 230.069 105.195 230.069 104.235C230.069 103.275 230.669 102.33 231.824 102.33C232.979 102.33 233.609 103.275 233.609 104.235ZM249.536 108V103.38C249.536 101.97 248.846 100.32 246.821 100.32C245.711 100.32 244.931 100.815 244.436 101.595C244.016 100.785 243.266 100.32 242.186 100.32C241.061 100.32 240.296 100.935 239.951 101.565H239.921V100.53H237.536V108H240.011V103.95C240.011 103.05 240.461 102.345 241.241 102.345C241.976 102.345 242.306 102.885 242.306 103.74V108H244.766V103.965C244.766 103.125 245.171 102.345 246.011 102.345C246.881 102.345 247.076 103.065 247.076 103.92V108H249.536ZM256.194 96.525C255.864 96.42 255.429 96.375 255.009 96.375C252.519 96.375 251.799 97.98 251.799 99.81V100.53H250.434V102.375H251.799V108H254.259V102.375H255.924V100.53H254.259V99.78C254.259 99.09 254.454 98.37 255.354 98.37C255.594 98.37 255.849 98.415 256.029 98.475L256.194 96.525ZM264.777 104.235C264.777 101.79 262.887 100.29 260.622 100.29C258.372 100.29 256.482 101.79 256.482 104.235C256.482 106.68 258.372 108.24 260.622 108.24C262.887 108.24 264.777 106.68 264.777 104.235ZM262.407 104.235C262.407 105.195 261.792 106.17 260.637 106.17C259.482 106.17 258.867 105.195 258.867 104.235C258.867 103.275 259.467 102.33 260.622 102.33C261.777 102.33 262.407 103.275 262.407 104.235ZM271.285 100.38C271.165 100.335 270.955 100.32 270.76 100.32C269.845 100.32 269.11 100.86 268.735 101.61H268.705V100.53H266.335V108H268.795V104.16C268.795 103.545 269.23 102.465 270.55 102.465C270.745 102.465 270.955 102.48 271.18 102.54L271.285 100.38ZM276.531 102.375V100.53H274.776V98.565H272.361V100.53H271.176V102.375H272.376V105.525C272.376 107.115 273.036 108.18 275.031 108.18C275.556 108.18 276.126 108.075 276.456 107.955L276.426 106.155C276.246 106.23 275.946 106.275 275.706 106.275C275.001 106.275 274.776 105.915 274.776 105.225V102.375H276.531ZM289.433 108V105.78H284.153L289.328 99.435V97.38H281.183V99.555H286.118L281.063 105.78V108H289.433ZM298.703 104.235C298.703 101.79 296.813 100.29 294.548 100.29C292.298 100.29 290.408 101.79 290.408 104.235C290.408 106.68 292.298 108.24 294.548 108.24C296.813 108.24 298.703 106.68 298.703 104.235ZM296.333 104.235C296.333 105.195 295.718 106.17 294.563 106.17C293.408 106.17 292.793 105.195 292.793 104.235C292.793 103.275 293.393 102.33 294.548 102.33C295.703 102.33 296.333 103.275 296.333 104.235ZM307.641 108V103.38C307.641 101.88 306.921 100.32 304.911 100.32C303.876 100.32 303.021 100.905 302.676 101.565H302.646V100.53H300.261V108H302.736V103.95C302.736 103.095 303.186 102.345 304.056 102.345C304.941 102.345 305.166 103.095 305.166 103.92V108H307.641ZM311.484 103.41C311.544 102.645 312.234 101.985 313.179 101.985C314.154 101.985 314.649 102.63 314.649 103.41H311.484ZM316.914 104.355C316.914 101.805 315.369 100.29 313.164 100.29C310.899 100.29 309.129 101.85 309.129 104.295C309.129 106.815 310.989 108.24 313.239 108.24C314.754 108.24 315.924 107.67 316.629 106.65L314.919 105.57C314.589 106.02 314.049 106.35 313.269 106.35C312.384 106.35 311.559 105.765 311.484 104.94H316.899C316.914 104.76 316.914 104.55 316.914 104.355ZM320.479 97.38H319.399V105.12H320.479V97.38ZM320.749 107.28C320.749 106.86 320.419 106.47 319.939 106.47C319.459 106.47 319.129 106.86 319.129 107.28C319.129 107.7 319.459 108.09 319.939 108.09C320.419 108.09 320.749 107.7 320.749 107.28Z" fill="white"/>
<path d="M140.775 109.5H213.073V110.25H140.775V109.5ZM216.83 109.5H317.484V110.25H216.83V109.5Z" fill="white"/>
<path d="M213.08 109.5H216.83V110.25H213.08V109.5ZM317.479 109.5H322.4V110.25H317.479V109.5Z" fill="white"/>
</svg>
