<svg width="32" height="32" viewBox="0 0 32 32" fill="none" xmlns="http://www.w3.org/2000/svg">
<path d="M1.03823 7.05514C1.01383 6.78063 1.1038 6.50822 1.2869 6.30224L5.70166 1.33564C5.89142 1.12215 6.16343 1 6.44907 1H10C10.5523 1 10.9918 1.45048 11.079 1.99584C11.1422 2.39152 11.2432 2.77938 11.3806 3.15259C11.6319 3.83505 12.0002 4.45515 12.4645 4.97748C12.9288 5.4998 13.48 5.91414 14.0866 6.19682C14.6932 6.47951 15.3434 6.625 16 6.625C16.6566 6.625 17.3068 6.47951 17.9134 6.19682C18.52 5.91414 19.0712 5.49981 19.5355 4.97748C19.9998 4.45515 20.3681 3.83505 20.6194 3.15259C20.7568 2.77938 20.8578 2.39152 20.921 1.99584C21.0082 1.45048 21.4477 1 22 1H25.5509C25.8366 1 26.1086 1.12215 26.2983 1.33564L30.7131 6.30224C30.8962 6.50822 30.9862 6.78063 30.9618 7.05514L30.3168 14.311C30.2494 15.0696 29.3925 15.4774 28.7613 15.0513L27.5595 14.2401C26.8953 13.7918 26 14.2677 26 15.069V30C26 30.5523 25.5523 31 25 31H7C6.44772 31 6 30.5523 6 30V15.069C6 14.2677 5.10468 13.7918 4.44053 14.2401L3.23875 15.0513C2.6075 15.4774 1.75063 15.0696 1.6832 14.311L1.03823 7.05514Z" stroke="white" stroke-linecap="square" stroke-linejoin="round"/>
</svg>
