<svg width="20" height="21" viewBox="0 0 20 21" fill="none" xmlns="http://www.w3.org/2000/svg">
<path d="M7.09162 17.1633H7.02495C5.68192 17.1512 4.35831 16.8317 3.14995 16.2279C2.92768 16.1204 2.74467 15.9424 2.62771 15.7201C2.51075 15.4977 2.46598 15.2426 2.49995 14.9922C2.53691 14.74 2.65028 14.5063 2.82388 14.3245C2.99748 14.1426 3.22243 14.0219 3.46662 13.9795C4.21546 13.8766 4.93586 13.6167 5.58329 13.2158C4.45925 12.3108 3.59391 11.1095 3.07897 9.73922C2.56403 8.36894 2.41866 6.88073 2.65829 5.4323C2.69078 5.20287 2.78659 4.98789 2.93433 4.81293C3.08206 4.63797 3.2755 4.51041 3.49162 4.44542C3.70188 4.37742 3.92691 4.37451 4.13876 4.43706C4.35061 4.49961 4.53996 4.62486 4.68329 4.79726C5.16996 5.45442 5.78153 6.00259 6.48071 6.40833C7.17988 6.81407 7.952 7.06887 8.74995 7.15719C8.78807 6.14616 9.20998 5.19091 9.92495 4.49691C10.282 4.14487 10.7034 3.86952 11.1648 3.6869C11.6262 3.50428 12.1182 3.41805 12.6123 3.43322C13.1064 3.4484 13.5925 3.56468 14.0425 3.77529C14.4925 3.9859 14.8973 4.28663 15.2333 4.65996C15.3208 4.73965 15.4296 4.79044 15.5455 4.80574C15.6614 4.82104 15.7791 4.80015 15.8833 4.74577C16.082 4.64927 16.3032 4.61294 16.5212 4.64103C16.7392 4.66912 16.9449 4.76046 17.1144 4.9044C17.2839 5.04834 17.4101 5.23894 17.4784 5.45397C17.5467 5.669 17.5541 5.89958 17.5 6.11882C17.3077 6.93417 16.9436 7.69593 16.4333 8.35003C16.3208 10.7913 15.2757 13.0877 13.5257 14.7387C11.7758 16.3896 9.46301 17.2612 7.09162 17.1633ZM7.09162 15.447H7.15829C8.12718 15.4813 9.09305 15.3172 9.99989 14.9642C10.9067 14.6113 11.7365 14.0764 12.4412 13.3907C13.1458 12.705 13.7112 11.8821 14.1047 10.9697C14.4981 10.0573 14.7118 9.07351 14.7333 8.07542C14.747 7.80188 14.8566 7.54275 15.0416 7.34598C15.2449 7.08103 15.4182 6.79312 15.5583 6.48783C15.2581 6.48842 14.9611 6.42375 14.6869 6.29805C14.4126 6.17236 14.1672 5.98846 13.9666 5.7584C13.7738 5.5615 13.5447 5.40619 13.2929 5.30157C13.0411 5.19695 12.7715 5.14512 12.5 5.14911C12.2257 5.1418 11.9528 5.19035 11.6968 5.29197C11.4408 5.39358 11.2068 5.54626 11.0083 5.74123C10.7404 6.00297 10.544 6.33256 10.4387 6.69702C10.3334 7.06148 10.3229 7.44802 10.4083 7.81797L10.625 8.79627L9.64995 8.86492C8.65087 8.94882 7.64601 8.80808 6.70497 8.45246C5.76392 8.09683 4.90919 7.53482 4.19995 6.80535C4.16954 7.93502 4.44395 9.05125 4.9927 10.0299C5.54144 11.0086 6.34301 11.8114 7.30829 12.349L8.09995 12.8124L7.57495 13.5848C7.0072 14.3516 6.22927 14.9255 5.34162 15.2324C5.91105 15.3794 6.49626 15.4515 7.08329 15.447H7.09162Z" fill="white"/>
</svg>
